<svg xmlns="http://www.w3.org/2000/svg" viewBox="0 0 64 64">
  <defs>
    <linearGradient id="g" x1="0" x2="1" y1="0" y2="1">
      <stop offset="0%" stop-color="#16a34a"/>
      <stop offset="100%" stop-color="#22c55e"/>
    </linearGradient>
  </defs>
  <rect width="64" height="64" rx="14" fill="url(#g)"/>
  <g fill="#ffffff">
    <path d="M16 44l8-24h6l8 24h-5.6l-1.7-5.4h-8.9L20.1 44H16zm9.4-9.7h6.6l-3.3-10.3h-0.1l-3.2 10.3z"/>                                                         
    <path d="M46 20c4.4 0 8 3.6 8 8 0 3.4-2.1 6.2-5.1 7.4l1.7 6.6h-5.1l-1.4-5.5H40v-4.1h6.1c2.2 0 3.9-1.8 3.9-4s-1.7-4-4-4H40V20h6z"/>                          
  </g>
</svg>
